<svg width="370" height="43" xmlns="http://www.w3.org/2000/svg"><g fill="none" fill-rule="evenodd"><path d="M17.5 14.6v.67h-1.94v-.67c0-.5-.43-.94-.94-.94H3.1c-.5 0-.93.44-.93.94v3.86c0 .5.43.92.93.92h11.52c1.61 0 2.88 1.3 2.88 2.88v3.86c0 1.6-1.27 2.88-2.88 2.88H3.1a2.86 2.86 0 0 1-2.88-2.88v-.67h1.95v.67c0 .5.43.94.93.94h11.52c.5 0 .94-.44.94-.94v-3.86c0-.5-.43-.92-.94-.92H3.1c-1.6 0-2.88-1.3-2.88-2.88V14.6c0-1.6 1.28-2.88 2.88-2.88h11.52c1.61 0 2.88 1.27 2.88 2.88zm5.36 12.43h11.28V29H22.86a2.9 2.9 0 0 1-2.9-2.9v-8.12c0-1.6 1.29-2.9 2.9-2.9h11.23v1.97H22.86c-.5 0-.94.43-.94.93v8.12c0 .5.43.93.94.93zM36.66 29V15.08h1.96V29h-1.96zm0-18.48h1.96v1.97h-1.96v-1.97zm16.22 4.56a2.9 2.9 0 0 1 2.93 2.9v5.04H43.59v3.08c0 .5.43.93.94.93H55.8V29H44.53a2.9 2.9 0 0 1-2.9-2.9v-8.12c0-1.6 1.29-2.9 2.9-2.9h8.35zm-9.29 5.98h10.23v-3.08c0-.5-.41-.93-.94-.93h-8.35c-.5 0-.94.43-.94.93v3.08zm26-5.98c1.6 0 2.9 1.3 2.9 2.9V29h-1.97V17.98c0-.5-.43-.93-.94-.93h-8.35a.96.96 0 0 0-.96.93V29H58.3V15.08h11.28zm8.25 11.95h11.28V29H77.84a2.9 2.9 0 0 1-2.9-2.9v-8.12c0-1.6 1.3-2.9 2.9-2.9h11.23v1.97H77.84c-.5 0-.94.43-.94.93v8.12c0 .5.44.93.94.93zm25.03-11.95a2.9 2.9 0 0 1 2.93 2.9v5.04H93.58v3.08c0 .5.44.93.94.93h11.28V29H94.52a2.9 2.9 0 0 1-2.9-2.9v-8.12c0-1.6 1.3-2.9 2.9-2.9h8.35zm-9.29 5.98h10.23v-3.08c0-.5-.41-.93-.94-.93h-8.35c-.5 0-.94.43-.94.93v3.08zm21.34-9.34h15.77v1.94h-13.83v5.72h11.12v1.96h-11.12V29h-1.94V11.72zM132.12 29V15.08h1.98V29h-1.97zm0-18.48h1.98v1.97h-1.97v-1.97zM140 27.03h11.28V29H140a2.9 2.9 0 0 1-2.9-2.9v-8.12c0-1.6 1.3-2.9 2.9-2.9h11.23v1.97H140c-.5 0-.94.43-.94.93v8.12c0 .5.44.93.94.93zm21.82-9.98h-6.03v9.05c0 .5.43.93.94.93h5.09V29h-5.1c-1.62 0-2.9-1.3-2.9-2.9V10.52h1.97v4.56h6.03v1.97zM163.64 29V15.08h1.97V29h-1.97zm0-18.48h1.97v1.97h-1.97v-1.97zm7.87 4.56h8.35a2.9 2.9 0 0 1 2.93 2.9v8.12c0 1.6-1.3 2.9-2.93 2.9h-8.35a2.9 2.9 0 0 1-2.9-2.9v-8.12c0-1.6 1.3-2.9 2.9-2.9zm8.35 1.97h-8.35c-.5 0-.93.43-.93.93v8.12c0 .5.43.93.93.93h8.35c.53 0 .94-.43.94-.93v-8.12c0-.5-.4-.93-.94-.93zm16.7-1.97c1.62 0 2.91 1.3 2.91 2.9V29h-1.97V17.98c0-.5-.43-.93-.93-.93h-8.35a.96.96 0 0 0-.96.93V29h-1.97V15.08h11.28z" fill="#74ABB2"/><path d="M293.37 4.25c0 .13-.05.26-.1.43-.35 1.47-2.4 3.47-5.33 3.47-5.03 0-7.83-3.16-12.33-4.58-4.23-1.34-6.27-1.83-10.28-1.83-7.56 0-9.88 2.67-9.88 2.67.8.45 5.08 4.72 5.08 10.82 0 7.12-5.92 13.35-11.22 13.35-3.6 0-7.16-3.07-7.16-6.41 0-1.74.27-2.32.75-3.87.18.22.32.49.32.62a9 9 0 0 0-.58 3.25c0 3.02 3.25 5.92 6.67 5.92 5.48 0 10.73-6.32 10.73-12.86 0-5.57-3.7-9.48-5.12-10.55-1.7.8-5.12 5.83-5.12 9.61 0 4.1 2.54 6.63 6.19 6v.5c-3.96.67-6.68-1.96-6.68-6.5 0-5.47 4.45-9.39 4.9-10.01 0 0-2.76-1.87-6.86-1.87-9.07 0-15.57 8.19-15.57 16.82 0 9.48 6.4 16.87 15.57 16.87 3.16 0 7-1.52 9.75-4.23 2.23-2.18 2.45-1.91 8.5-18.3l-1.7-.35.23-.66 1.78.35s1.56-2.36 2.76-3.34c2.94-2.49 4.67-2.75 9.75-2.93v.18c-.27.48-4 .62-5.43 1.33-2.27 1.11-3.87 5.34-3.87 5.34l2.62.49c.45-1.47 1.11-3.03 2.94-3.03.62 0 1.42.45 1.42 1.52 0 1.29-1.6 2.31-2.62 2.44.17 3.03-.27 7.26-3.79 7.26-.4 0-.89-.14-1.5-.71l.3-.32c.58.23.76.32 1.25.32 1.47 0 1.56-3.52 1.78-6.63l-2.67-.4s-2.94 11.48-6 15.3c-2.99 3.74-9.58 6.81-15.5 6.81-9.96 0-17-7.3-17-17.3 0-9.67 7.44-17.27 17-17.27 3.74 0 7.21 1.86 7.21 1.86s4.68-4.36 10.77-4.36c10.6 0 15.31 8.24 22.6 8.24 3.37 0 5.3-3.25 5.43-3.46zm0 0v-.02.02zm-18.02 8c0-.36-.36-.5-.67-.5-.63 0-1.56 2.14-1.2 2.14.35 0 1.87-.4 1.87-1.65zm20.29 8.05c-4.72 5.78-9.48 10.37-11.7 10.37-1.96 0-2.68-1.07-3.39-2.63-1.56 2.1-2.9 2.63-4.23 2.63-1.73 0-3.02-1.47-3.02-4.4 0-4.01 4.14-9.62 9.97-9.62.93 0 1.6.13 2.27 1.07 0 0 .49-.67.93-.67.53 0 1.34.27 1.87.27.36 0 .98-1.03 1.47-1.2l-5.83 10.94c-.62 1.16-.76 1.56-.76 2.05 0 .45.31.89.98.89 1.65 0 7.21-5.34 11.08-10.01l.36.3zm-10.77-1.78c0-.5-.31-1.07-.94-1.07-3.87 0-8 8.59-8 11.08 0 .94.13 1.47.88 1.47 1.65 0 2.8-1.74 3.52-2.94 1.82-3.11 4.54-7.83 4.54-8.54zm27.9 1.78c-.98 1.16-6.85 7.7-6.85 7.7-1.3 1.47-2.58 2.71-4.5 2.71-1.69 0-2.44-1.2-2.58-2.71-.04-.67-.04-1.25.94-2.72l3.69-5.65c.4-.62.62-1.11.62-1.33 0-.27-.18-.4-.66-.4-1.25 0-4.5 2.22-7.75 7.7-1.42 2.35-2.18 4.67-3.2 4.67-.58 0-1.16-.4-1.65-.4-.4 0-1.64 1.33-1.64 1.33l6.85-13.08c.35-.67.62-1.07 1.33-1.07.8 0 .94.36 1.56.36.4 0 .94-.98 1.65-1.3l-2.27 4.28c2.93-2.58 4.71-3.74 6.67-3.74 1.25 0 2.05.8 2.05 2.05 0 .8-.22 1.42-.85 2.4l-4.13 6.45a4.5 4.5 0 0 0-.8 1.52c0 .53.26.8.93.8.84 0 2.22-1.07 3.7-2.67l6.53-7.21.36.3zm10.46 0c-1.52 2.4-4.19 5.6-4.19 5.6-2.62 3.57-5.65 4.77-7.83 4.77-1.29 0-2.36-1.34-2.36-2.94 0-1.25.36-1.91.94-3.07l3.51-7.08h-3.29l.71-.66h3.6c2.63-1.7 3.66-2.76 7.04-7.88h.49l-4.5 7.88h3.34l-.27.66h-3.33l-4.63 8.1c-.54.94-1.02 1.7-1.02 2.36 0 .58.57 1.7 1.2 1.7 1.78 0 4.67-2.5 5.96-4.19 0 0 2.98-3.78 4.27-5.56l.36.3zm18.95 0c-4.71 5.78-9.47 10.37-11.7 10.37-1.96 0-2.67-1.07-3.38-2.63-1.56 2.1-2.9 2.63-4.23 2.63-1.73 0-3.02-1.47-3.02-4.4 0-4.01 4.13-9.62 9.96-9.62.94 0 1.6.13 2.27 1.07 0 0 .5-.67.94-.67.53 0 1.33.27 1.87.27.35 0 .98-1.03 1.47-1.2l-5.83 10.94c-.63 1.16-.76 1.56-.76 2.05 0 .45.31.89.98.89 1.64 0 7.2-5.34 11.08-10.01l.35.3zm-10.76-1.78c0-.5-.32-1.07-.94-1.07-3.87 0-8 8.59-8 11.08 0 .94.12 1.47.88 1.47 1.65 0 2.8-1.74 3.52-2.94 1.82-3.11 4.54-7.83 4.54-8.54zm21.76 1.78c-4.14 6.9-6.95 7.6-9.66 8a6.66 6.66 0 0 1-4.98 2.46c-2.32 0-3.52-1.25-3.52-3.16 0-1.3.85-2.5 2.14-2.5 1.24 0 2.22 1.6 3.16 1.96 1.2-.84 1.69-2.93 1.69-3.91 0-1.03-.85-2.54-.85-4.32 0-1.87.71-4.27 2.36-4.27.67 0 1.11.27 1.11.8 0 1.33-.8 2.4-1.38 3.43 0 0 1.34 2.93 1.34 4.85 0 1.55-.5 3.56-.8 4.05 2.98-.67 5.2-1.43 9.03-7.7l.36.3zm-9.08-4.85c0-.22-.14-.54-.54-.5-.3 0-.8.85-.84 1.88 0 .44.04.98.27 1.42.93-1.33 1.1-2 1.1-2.8zm-4.23 12.06c-1.07-.5-1.65-1.6-2.4-1.6-.45 0-.8.4-.8.89 0 .8.66 1.1 1.42 1.24.71.14 1.51-.04 1.78-.53zm30.3-7.21l-5.87 5.6c-2.58 2.4-3.7 3.88-7.25 5.84-2.4 4.13-4.8 11.57-10.2 11.57-2 0-3.6-1.43-3.6-3.43 0-3.96 5.65-6.1 10.64-7.66l1.87-3.78c-1.87 1.43-3.38 2.23-4.4 2.23-1.43 0-2.37-1.16-2.37-3.03 0-.44.23-1.78.76-2.76l3.65-6.76c.27-.54.84-1.07 1.24-1.07.9 0 1.12.36 1.74.36.4 0 1.07-1.12 1.6-1.3l-5.43 10.15c-.7 1.34-.75 1.56-.75 2.18 0 .67.17 1.25.66 1.25.54 0 3.34-1.07 4.54-3.2l4.68-8.37c.26-.5.57-1.07 1.24-1.07.94 0 .94.36 1.6.36.36 0 1.12-1.12 1.65-1.3-.85 1.52-4.1 8.55-8.72 14.96 3.11-1.92 4.31-3.56 6.5-5.56l5.87-5.52.36.3zm-16.42 12.37c-4.85 1.65-10.14 3.6-10.14 7.16 0 1.12.8 1.87 1.87 1.87 2.09 0 3.65-1.51 8.27-9.03z" fill="#FE6464"/><path d="M217.55 26.48a5.4 5.4 0 0 1-1.7 1.3c-.62.3-1.28.44-2 .44a3.94 3.94 0 0 1-3.14-1.34 3.63 3.63 0 0 1-.94-2.43c0-.8.26-1.52.77-2.16a6.42 6.42 0 0 1 2.3-1.69 7.72 7.72 0 0 1-1.16-1.63 2.68 2.68 0 0 1 .62-3.22 3.2 3.2 0 0 1 2.29-.85c.88 0 1.6.27 2.16.8.56.54.84 1.2.84 1.95 0 1.22-.81 2.27-2.44 3.13l2.31 2.95c.27-.52.47-1.11.62-1.8l1.64.36a8.97 8.97 0 0 1-1.14 2.77c.6.79 1.26 1.45 2.01 1.98l-1.06 1.26a9.2 9.2 0 0 1-1.98-1.82zm-3.22-6.72a4.2 4.2 0 0 0 1.34-1.06c.2-.3.3-.64.3-1.01 0-.44-.14-.8-.42-1.08a1.41 1.41 0 0 0-1.04-.41c-.43 0-.78.13-1.07.4-.28.28-.42.62-.42 1.02 0 .2.05.4.15.63.1.22.26.45.46.7l.7.81zm2.23 5.47l-2.9-3.6c-.86.52-1.43.99-1.73 1.43-.3.43-.45.86-.45 1.3 0 .51.2 1.06.62 1.62s1 .84 1.77.84c.47 0 .96-.15 1.47-.44.5-.3.91-.68 1.22-1.15z" fill="#FFF"/></g></svg>